<svg version="1.1" id="Layer_1" xmlns="http://www.w3.org/2000/svg" xmlns:xlink="http://www.w3.org/1999/xlink" x="0px" y="0px"
	 width="100%" viewBox="0 0 752 704" enable-background="new 0 0 752 704" xml:space="preserve">
<path fill="#000000" opacity="1.000000" stroke="none" 
	d="
M449.702087,424.553833 
	C446.534790,432.633026 443.516754,440.352478 440.522614,448.010834 
	C443.338379,450.801483 446.868958,450.707275 449.987244,451.663116 
	C454.053009,452.909393 458.595093,453.116425 460.790924,457.820709 
	C461.481964,459.301147 463.477539,458.979858 464.910522,459.110718 
	C475.349579,460.063751 485.790466,461.013794 496.243683,461.791229 
	C516.477600,463.296143 536.720215,464.685181 556.958679,466.129364 
	C558.262939,466.222443 559.608337,466.278717 560.443604,467.662384 
	C559.473145,469.888763 557.546936,469.643005 555.780762,469.626404 
	C446.476501,468.599091 337.169983,469.405029 227.864685,469.238953 
	C219.038773,469.225525 210.212524,469.477295 201.386246,469.590302 
	C199.758987,469.611145 198.052597,469.803284 196.858292,468.178436 
	C197.577423,466.038818 199.525757,466.355286 201.022705,466.239471 
	C216.612717,465.033539 232.214523,463.979431 247.804276,462.770172 
	C264.898560,461.444122 281.984192,460.006012 299.072571,458.604462 
	C319.128632,456.959564 339.201019,455.532074 359.203522,453.232819 
	C364.965515,452.570465 369.754517,450.609070 373.901215,446.666321 
	C375.654541,444.999268 377.527649,443.343811 379.847656,443.014557 
	C381.963013,444.990448 379.575409,446.415527 380.002991,447.969238 
	C387.831512,452.581635 391.210266,451.779541 395.535736,444.283844 
	C395.619049,444.139557 395.694672,443.989227 395.792084,443.854950 
	C401.420441,436.096100 402.164398,428.479431 396.775269,419.924133 
	C392.399780,412.977966 390.042023,404.841980 385.241455,397.898834 
	C384.718170,409.563599 392.045288,421.381012 384.843658,432.809570 
	C381.935791,432.459412 381.840363,430.543365 381.151459,429.113129 
	C379.274200,425.215759 377.599091,421.203064 375.465637,417.451111 
	C371.937225,411.245972 366.810516,406.912140 359.601715,405.548553 
	C353.182892,404.334351 348.986206,400.638794 346.158234,394.792389 
	C342.969940,388.201263 339.292969,381.867645 334.874969,375.962433 
	C332.048645,372.184662 329.098572,368.793152 324.910889,366.376434 
	C321.276703,364.279083 319.118134,360.457733 316.261963,357.441071 
	C312.447754,353.412567 310.956421,353.362885 306.914490,357.203247 
	C304.784424,359.227051 302.474701,359.913391 300.264496,357.956177 
	C297.917450,355.877716 293.416321,354.996307 295.209290,350.095886 
	C296.016815,347.888733 295.776917,345.922852 293.304565,344.632416 
	C289.773254,342.789337 288.431122,339.283600 287.239471,335.794861 
	C286.364838,333.234222 286.252594,330.845581 289.549896,329.738434 
	C292.638428,328.701355 295.802185,328.987854 296.612640,332.244751 
	C297.784363,336.953156 300.427979,338.014404 304.780273,338.244568 
	C307.255005,338.375458 309.596832,340.343628 312.076843,341.276062 
	C313.915802,341.967499 316.169525,342.855194 317.462952,340.621857 
	C318.724030,338.444458 317.627716,336.428619 315.858246,334.880432 
	C315.114014,334.229248 314.240967,333.715973 313.393158,333.194153 
	C310.475433,331.398407 308.241486,329.482697 312.192169,326.487244 
	C314.032318,325.092041 313.351471,323.559448 312.445526,322.094147 
	C309.680908,317.622437 311.127472,313.776367 314.238434,310.273041 
	C317.669769,306.408936 321.686157,303.388153 327.071350,301.798859 
	C328.224335,306.547302 325.148468,308.577057 322.817444,311.002350 
	C321.495636,312.377625 319.040833,313.262451 319.648651,315.658417 
	C320.237854,317.980927 322.759399,318.022675 324.599945,318.412323 
	C329.033386,319.350922 332.197601,321.642151 333.689880,326.458313 
	C336.436066,324.493805 335.963531,321.685547 336.841736,319.531952 
	C337.968323,316.769287 339.272522,313.988068 342.725311,314.470764 
	C346.315704,314.972656 345.283875,318.306610 345.369202,320.580475 
	C345.680511,328.878143 341.330353,335.497101 337.268311,342.212250 
	C336.115570,344.117920 333.684174,345.886841 334.928101,348.380615 
	C336.351135,351.233368 339.465790,350.869019 342.076691,350.741577 
	C351.956757,350.259125 359.574890,345.963318 364.398346,337.108521 
	C365.312195,335.430939 365.573181,333.200928 368.479797,332.342377 
	C372.817413,338.980164 368.631073,344.344757 365.070648,350.568451 
	C372.611084,349.454498 376.087524,345.064758 379.115692,339.678528 
	C382.008087,334.533783 382.223633,328.693359 383.482025,323.352173 
	C386.329681,323.182098 386.949615,324.834015 387.659760,326.315216 
	C389.809082,330.798309 390.626617,335.472626 389.635040,340.408844 
	C388.552887,345.795807 387.502441,351.189178 386.455109,356.583038 
	C385.597076,361.001892 386.337219,364.491333 390.559357,367.312805 
	C400.923584,374.238861 408.827454,383.245758 412.616669,395.470245 
	C413.364563,397.882996 414.146301,400.571777 417.168823,402.439423 
	C416.782837,384.378937 422.383118,366.443146 413.079193,349.112885 
	C420.856873,350.834229 424.164093,357.602509 429.772034,361.301270 
	C435.988708,365.401581 437.058502,372.855499 440.591278,379.054932 
	C444.425476,371.323181 443.407288,363.332733 441.120728,355.792450 
	C436.756683,341.401337 430.332367,328.229065 414.807465,321.692932 
	C413.114136,325.529236 415.194427,329.899567 411.954163,332.957062 
	C408.991608,332.149353 408.418915,329.569153 407.461884,327.382751 
	C402.071442,315.067932 395.657379,303.498047 384.891327,294.896210 
	C378.907745,290.115448 373.761780,288.584076 365.604034,290.012299 
	C368.047211,291.574310 369.955261,292.745483 371.812805,293.991974 
	C375.690857,296.594299 378.447632,300.021484 379.495422,304.670959 
	C379.783661,305.949860 380.454559,307.377014 378.844086,308.198242 
	C377.463959,308.902039 376.242432,308.168121 375.228363,307.236176 
	C374.496490,306.563538 373.847260,305.787750 373.234039,305.001190 
	C367.258942,297.337067 359.351776,293.899658 349.717285,294.107574 
	C345.656830,294.195190 341.592896,294.122192 337.431854,294.122192 
	C337.561310,289.825409 340.794800,290.653168 343.076477,289.023193 
	C338.599548,288.363983 335.329590,289.855103 332.289215,291.954803 
	C328.867828,294.317627 325.591766,296.890320 322.183197,299.272583 
	C321.078552,300.044617 319.647125,300.580902 318.613586,299.183777 
	C317.770477,298.044098 318.490295,296.847992 319.299561,296.036652 
	C322.930237,292.396606 325.794678,288.504639 325.143311,282.921844 
	C324.990936,281.616028 326.121429,280.862244 327.449463,280.805145 
	C328.611176,280.755188 329.924347,280.476166 330.920349,280.894348 
	C343.071716,285.996033 355.634674,282.711578 367.995331,282.627075 
	C376.456024,282.569305 383.671600,284.808563 389.999908,290.376038 
	C395.992188,295.647919 402.537964,300.285889 407.697266,306.498535 
	C409.714722,308.927856 412.163910,311.143463 415.085327,312.380432 
	C429.016541,318.279144 437.800751,329.186707 445.132111,341.886414 
	C450.031067,350.372559 452.633026,359.379639 452.798676,368.958160 
	C452.985992,379.791351 453.366608,390.604401 454.302002,401.385010 
	C455.004730,409.483978 452.654480,416.850616 449.702087,424.553833 
M421.377869,450.529144 
	C430.441650,449.821625 432.597992,442.432404 435.602264,435.841644 
	C430.608337,439.876984 425.889374,444.197571 421.217865,448.568909 
	C420.730591,449.024902 419.685547,449.627258 421.377869,450.529144 
z"/>
<path fill="#000000" opacity="1.000000" stroke="none" 
	d="
M392.885376,252.872498 
	C365.033020,251.084122 338.361725,254.919113 312.473938,264.156860 
	C279.593201,275.889954 251.788437,295.144348 229.008591,321.493073 
	C211.143784,342.156677 198.011658,365.628265 190.103836,391.813019 
	C185.875198,405.815155 182.609695,420.084930 182.228561,434.841553 
	C182.183502,436.585907 182.639008,438.557251 180.603806,440.117218 
	C178.283783,438.796295 178.899948,436.453156 178.873627,434.518677 
	C178.670654,419.598450 181.240021,405.016388 184.770248,390.612946 
	C194.209747,352.099396 213.056549,318.879089 241.901932,291.619904 
	C270.197052,264.880737 303.571960,247.940109 341.901093,240.502411 
	C357.054199,237.561996 372.218994,236.187119 387.558838,236.867355 
	C416.023956,238.129623 443.092255,245.052460 468.654999,257.716614 
	C470.892700,258.825226 473.156219,259.887421 475.349487,261.078461 
	C477.477936,262.234283 479.944550,262.994293 481.023712,266.271576 
	C483.629608,260.747467 483.746643,255.064362 486.926575,249.893005 
	C490.234039,253.661209 490.387665,258.135193 491.388947,262.096100 
	C492.384125,266.032776 494.223602,267.054565 498.048737,266.766815 
	C501.991089,266.470215 506.039551,265.490295 510.996979,266.524567 
	C507.401733,271.167542 502.227783,272.223602 499.206207,275.889069 
	C568.548462,328.938751 582.242126,405.438904 579.299377,440.894012 
	C576.800476,437.006256 577.080994,433.255646 576.808044,430.001099 
	C574.762329,405.609894 567.835144,382.702728 556.854919,360.911041 
	C544.057251,335.512390 526.487488,313.911560 504.186432,296.422302 
	C499.257263,292.556641 493.769897,289.106781 488.620575,285.351715 
	C486.422180,283.748596 485.045959,285.089874 483.377350,286.340424 
	C479.931793,288.922729 477.133667,292.522980 472.158386,294.362244 
	C472.530548,289.578613 474.279236,286.199036 475.559570,282.709595 
	C477.698151,276.880890 474.075104,271.568817 467.737701,271.863556 
	C465.713074,271.957733 464.192108,271.326843 462.566895,270.570068 
	C440.582031,260.333221 417.465790,254.556717 392.885376,252.872498 
z"/>
<path fill="#000000" opacity="1.000000" stroke="none" 
	d="
M484.531311,506.469482 
	C488.378815,508.900970 486.896301,512.252869 486.468140,515.187256 
	C486.051636,518.041931 483.367981,517.750793 481.262268,517.894470 
	C475.757019,518.270142 477.226532,521.738342 477.740753,524.887146 
	C479.516754,525.432983 480.260986,524.577515 480.690338,523.413940 
	C481.356018,521.609619 481.200867,519.028259 483.833160,518.900574 
	C487.618530,518.716919 491.587952,517.567871 495.175781,519.191589 
	C497.952698,520.448303 495.519745,523.892700 497.293152,526.403381 
	C499.865234,522.667175 499.753784,518.440552 500.613495,514.609436 
	C502.250824,507.313171 503.481842,499.921356 504.722595,492.542480 
	C505.299774,489.109741 506.538361,487.200592 510.548950,487.532776 
	C515.011536,487.902435 519.544495,487.764893 524.023621,487.481964 
	C527.448792,487.265564 528.707520,488.724304 529.299500,491.904297 
	C531.154663,501.869720 533.293884,511.781891 535.238647,521.731201 
	C535.998535,525.618835 538.567078,528.968628 538.192017,533.234497 
	C537.925049,536.271667 536.883667,537.913818 533.699463,537.878296 
	C530.869324,537.846741 528.038147,537.935242 525.207581,537.921631 
	C517.917969,537.886597 516.681274,536.442322 517.857117,529.286621 
	C518.042725,528.157471 518.464417,527.067139 518.785339,525.928894 
	C517.233521,524.617371 515.718994,524.923340 513.925903,525.751038 
	C513.987671,526.360229 513.964905,526.998962 514.125305,527.587830 
	C516.501831,536.312744 515.668945,537.361450 506.890411,537.424072 
	C493.264130,537.521179 479.639038,537.779724 466.012909,537.916016 
	C458.745209,537.988708 457.860382,537.278687 458.836700,530.347778 
	C460.493439,518.586731 460.427032,506.906097 458.823639,495.149567 
	C457.928375,488.585144 459.014221,487.697235 465.718445,487.666473 
	C474.536407,487.626007 483.358612,487.705750 492.169922,487.436310 
	C495.585571,487.331879 496.642517,488.601257 496.462799,491.788849 
	C496.294373,494.775635 496.264709,497.792664 496.487091,500.773010 
	C496.723969,503.947174 495.652435,505.510956 492.325165,505.324585 
	C490.166656,505.203644 487.923767,504.918884 485.847321,505.340729 
	C481.131165,506.298798 481.723450,500.697540 478.680206,499.692474 
	C475.730591,504.926697 476.411163,505.727814 484.531311,506.469482 
M516.404480,513.533691 
	C518.573486,511.270111 516.531006,509.427643 515.767273,507.428741 
	C516.354553,509.482086 513.139099,511.508057 516.404480,513.533691 
z"/>
<path fill="#000000" opacity="1.000000" stroke="none" 
	d="
M348.354614,444.593994 
	C345.797180,445.361053 343.692719,445.119537 341.567352,444.484406 
	C329.638031,440.919708 318.551422,435.885529 309.301727,427.219055 
	C303.934265,422.190002 300.926788,416.109100 299.841949,409.004913 
	C299.557281,407.140778 299.098145,404.403198 301.444580,403.759094 
	C304.067017,403.039185 304.353790,405.935608 305.101532,407.630890 
	C308.092133,414.411163 311.204681,421.047058 318.831604,423.887390 
	C319.726898,424.220795 320.604309,424.914368 322.399658,423.772125 
	C318.163635,418.045013 312.051422,413.462280 310.663177,405.952911 
	C309.376312,398.991913 307.827179,392.079407 306.439850,385.369568 
	C303.852325,384.893646 303.179688,387.942719 301.122009,387.157318 
	C300.412354,386.635315 300.215820,385.948944 300.537598,385.342194 
	C304.357086,378.140106 308.213562,370.957581 312.071930,363.776154 
	C313.069031,361.920258 315.090332,360.465424 316.402771,362.286987 
	C321.163147,368.893982 329.944641,370.765839 334.116302,378.067200 
	C336.993927,383.103760 340.735870,387.628723 342.763184,393.181580 
	C343.882324,396.246857 343.596710,398.997620 341.944641,401.762115 
	C337.733826,408.808289 338.636444,413.622986 344.853973,419.166962 
	C348.369537,422.301666 352.888824,423.028748 356.992310,424.780029 
	C360.659943,426.345306 365.689362,426.872986 365.581116,432.385803 
	C365.479340,437.569916 361.716156,440.092743 357.316772,441.828461 
	C354.527435,442.928986 351.764740,444.091370 348.354614,444.593994 
z"/>
<path fill="#000000" opacity="1.000000" stroke="none" 
	d="
M316.461700,497.509827 
	C316.752167,495.784149 316.998199,494.473816 317.138580,493.152283 
	C317.562622,489.159271 319.537750,487.490631 323.749664,487.549591 
	C327.746307,487.605560 329.427887,489.226501 330.002869,492.972870 
	C330.632355,497.074524 331.634125,501.119110 332.486542,505.185913 
	C332.515839,505.325653 332.683807,505.436310 333.127747,505.970093 
	C334.376251,502.836792 334.813873,500.203461 333.553253,497.028168 
	C330.964966,490.508636 332.784973,487.941681 339.674866,487.551453 
	C340.836182,487.485657 341.989044,487.278290 343.150085,487.199615 
	C350.401459,486.708099 352.984833,489.516052 350.630127,496.424011 
	C346.793060,507.680817 345.667206,519.463684 343.283325,530.992615 
	C342.251129,535.984436 340.540985,538.648499 335.101013,537.458313 
	C334.162262,537.252930 333.115570,537.505920 332.122406,537.590027 
	C326.602234,538.057312 325.439697,537.165405 324.895660,531.481812 
	C324.516052,527.516479 323.782867,523.657898 322.356964,518.711487 
	C321.155640,524.367615 320.090393,528.871643 319.269775,533.419861 
	C318.687744,536.645813 317.014618,537.801086 313.750977,537.715576 
	C303.186310,537.438782 303.273041,537.506592 300.817719,527.006592 
	C298.439056,516.834473 297.694916,506.350342 294.083099,496.382019 
	C291.743408,489.924744 293.832184,487.818573 300.786682,487.672363 
	C303.279755,487.619934 305.822327,487.940735 308.258209,487.557159 
	C313.580780,486.719025 314.583008,489.483154 314.258118,493.904236 
	C313.953857,498.045044 311.955444,502.187469 314.071106,506.785950 
	C315.741455,503.776947 315.451935,500.687927 316.461700,497.509827 
z"/>
<path fill="#000000" opacity="1.000000" stroke="none" 
	d="
M144.726349,532.858765 
	C146.381546,523.011658 146.084442,513.527161 145.890167,504.064850 
	C145.808929,500.109253 145.091095,496.169617 144.742523,492.215698 
	C144.468826,489.111145 145.847885,487.592346 149.095047,487.664398 
	C152.587570,487.741913 156.090240,487.661469 159.579941,487.482941 
	C163.056595,487.305054 164.540649,488.936127 164.248062,492.264160 
	C163.958084,495.562317 163.435852,498.841797 163.205551,502.142731 
	C163.107620,503.546356 162.943558,505.525421 165.176117,505.426270 
	C166.969757,505.346619 166.742142,503.609009 166.908783,502.323181 
	C167.312790,499.205688 165.489029,496.544647 165.136246,493.577423 
	C164.579620,488.895721 165.848618,487.420105 170.397125,487.501465 
	C172.892502,487.546082 175.390228,487.543610 177.885498,487.492828 
	C185.267639,487.342621 186.570633,488.262726 185.191483,495.290253 
	C183.433640,504.247284 184.480896,513.196167 184.033600,522.134705 
	C183.839874,526.005981 186.032242,529.421875 185.592865,533.399658 
	C185.241989,536.576233 184.306519,537.792175 181.001984,537.545288 
	C177.871719,537.311462 174.692200,537.848694 171.534683,537.843567 
	C165.483780,537.833679 163.757278,535.647705 165.374603,529.712708 
	C166.208435,526.652893 167.326691,523.702698 166.907852,520.458069 
	C166.738876,519.149048 166.815063,517.505554 164.941605,517.586060 
	C163.092697,517.665588 163.336136,519.340271 163.149338,520.622803 
	C162.558990,524.676147 164.347580,528.472534 164.370178,532.489075 
	C164.389420,535.912720 163.556732,537.920715 159.667435,537.764709 
	C156.180328,537.624939 152.680267,537.829102 149.185745,537.846863 
	C146.170746,537.862244 144.436920,536.570007 144.726349,532.858765 
z"/>
<path fill="#000000" opacity="1.000000" stroke="none" 
	d="
M374.561096,535.498901 
	C372.049957,530.653870 371.094238,525.521301 368.025360,520.890747 
	C366.840271,523.515808 367.798767,525.387573 368.508636,527.398743 
	C371.206299,535.041809 369.188660,537.886353 361.242889,537.893860 
	C351.870453,537.902710 351.212982,536.310791 353.066864,527.026245 
	C354.952148,517.584412 354.177307,507.861542 353.365265,498.259338 
	C353.297089,497.453339 352.791351,496.691162 352.671478,495.881592 
	C351.584473,488.540314 352.476105,487.521027 359.799805,487.620361 
	C370.621307,487.767120 370.609985,487.771210 374.389954,498.349884 
	C375.170105,500.533203 376.069305,502.673981 377.173981,505.500519 
	C378.114960,502.258911 377.417450,499.961700 376.571686,497.529144 
	C373.901337,489.848816 375.932434,487.064209 383.927734,487.088226 
	C384.759552,487.090729 385.591492,487.088593 386.423126,487.102722 
	C392.590057,487.207550 394.396362,488.663422 392.909698,494.571411 
	C389.840302,506.769135 391.852203,519.056458 391.312531,531.282898 
	C391.030029,537.682617 391.075867,538.103271 384.492004,537.839172 
	C381.202087,537.707214 377.394440,539.349365 374.561096,535.498901 
z"/>
<path fill="#000000" opacity="1.000000" stroke="none" 
	d="
M445.686188,537.191528 
	C436.821777,538.817871 428.310913,537.014343 419.842682,537.726379 
	C416.905853,537.973267 416.049622,536.272034 415.652283,533.444275 
	C415.060242,529.230835 417.930695,525.761169 417.574829,521.744080 
	C416.814270,513.158203 417.872772,504.494965 415.869354,495.932739 
	C414.358978,489.477875 415.782013,488.191681 422.176636,487.510284 
	C429.010162,486.782135 435.818237,487.644135 442.607117,487.528168 
	C453.597076,487.340424 457.926270,499.168762 453.400024,507.352081 
	C451.831146,510.188660 451.839691,511.906311 453.624664,514.797363 
	C459.254089,523.915039 454.520538,536.082764 445.686188,537.191528 
M438.630005,522.892578 
	C438.679382,522.245605 438.780029,521.597595 438.767975,520.951782 
	C438.739014,519.400208 438.370056,517.998840 436.625702,517.550537 
	C435.516357,517.265503 434.619263,517.737488 434.414734,518.854980 
	C434.036224,520.923279 433.420715,523.304871 434.964844,524.922913 
	C436.350464,526.374817 437.546722,524.868896 438.630005,522.892578 
M434.235626,502.670197 
	C434.275818,504.253845 434.396301,505.847992 436.613770,505.526428 
	C437.928284,505.335785 438.555969,504.350708 438.633240,503.051239 
	C438.719971,501.592743 438.224915,500.335327 436.803131,499.846100 
	C434.967010,499.214325 434.526001,500.546906 434.235626,502.670197 
z"/>
<path fill="#000000" opacity="1.000000" stroke="none" 
	d="
M541.462097,487.558960 
	C548.684875,487.535431 555.506287,487.648315 562.328064,487.666718 
	C567.897766,487.681763 574.041565,487.293030 576.673279,493.338562 
	C579.493347,499.816711 579.829346,506.635742 574.361877,511.999908 
	C578.335205,518.830383 578.472290,526.365479 579.773010,533.556274 
	C580.209351,535.968323 578.750427,537.637878 575.863098,537.411072 
	C573.875977,537.254822 571.869995,537.319641 569.872437,537.318420 
	C561.648376,537.313538 561.190552,536.716125 560.788086,528.204834 
	C560.649841,525.281738 562.329102,521.638428 558.362000,519.248840 
	C556.732727,521.690735 557.000366,523.915039 557.890381,526.085938 
	C558.527832,527.640686 559.067444,529.154236 559.158508,530.863586 
	C559.471741,536.745605 558.865173,537.408997 552.895386,537.395264 
	C550.398315,537.389526 547.900635,537.387817 545.404175,537.434570 
	C539.321228,537.548584 537.751160,535.987183 539.063660,530.076477 
	C541.691101,518.244263 541.561890,506.513397 539.041321,494.683228 
	C538.545410,492.355896 537.771606,489.226624 541.462097,487.558960 
M561.719421,504.221191 
	C561.871094,502.364258 561.842773,500.525146 559.763672,499.705902 
	C558.650696,499.267365 557.804688,499.967834 557.577393,501.021576 
	C557.203125,502.757294 556.645325,504.784149 558.059021,506.126373 
	C559.476196,507.471863 560.721985,506.397400 561.719421,504.221191 
z"/>
<path fill="#000000" opacity="1.000000" stroke="none" 
	d="
M291.133911,529.638184 
	C288.661926,535.586792 284.199921,537.971497 278.435425,538.236938 
	C263.264587,538.935547 253.334793,538.548523 254.724365,516.129883 
	C255.042770,510.992828 254.719482,505.818787 254.800140,500.663483 
	C254.908600,493.731720 258.601105,488.921936 265.347229,487.414124 
	C270.909943,486.170868 276.556122,486.283325 282.137756,487.648743 
	C287.601501,488.985260 291.169861,492.592133 291.640900,497.962219 
	C292.553680,508.367767 293.069824,518.845642 291.133911,529.638184 
M271.226959,503.997253 
	C271.243622,509.971558 271.232971,515.946167 271.294678,521.919983 
	C271.311646,523.564331 271.261810,525.607300 273.676514,525.443848 
	C275.618317,525.312378 275.708344,523.502502 275.717987,521.997925 
	C275.758362,515.692078 275.766846,509.385742 275.726654,503.079956 
	C275.717133,501.587646 275.636261,499.745239 273.701843,499.615326 
	C271.352417,499.457581 271.384918,501.472290 271.226959,503.997253 
z"/>
<path fill="#000000" opacity="1.000000" stroke="none" 
	d="
M598.991577,519.008118 
	C596.653076,518.164246 594.317200,517.313049 591.975586,516.477905 
	C584.914368,513.959534 581.704163,508.784607 582.071472,500.498230 
	C582.364502,493.887390 586.215942,488.935486 593.093994,487.451813 
	C600.545593,485.844330 608.018738,486.209839 615.092285,489.463165 
	C618.828308,491.181427 620.996521,499.649261 618.687927,502.989685 
	C617.940613,504.071014 616.798523,504.352448 615.614441,504.317322 
	C610.321594,504.160278 603.958557,506.792480 601.859314,498.535095 
	C598.823120,500.361145 598.589172,502.129395 601.151978,503.624023 
	C602.977844,504.688904 605.153503,505.232910 607.235229,505.766907 
	C617.038574,508.281677 622.019043,514.484924 621.013062,523.067993 
	C619.826416,533.192078 614.303040,537.995728 603.478699,538.277954 
	C597.791565,538.426331 592.122070,538.387268 586.927612,535.552063 
	C583.245239,533.542175 581.257324,523.064758 583.918213,519.917664 
	C584.916992,518.736389 586.276489,518.776184 587.587708,518.775208 
	C591.084167,518.772583 594.580688,518.851929 598.599854,519.322510 
	C599.695923,521.885803 599.199158,524.431519 601.368469,525.986206 
	C603.637024,525.488586 603.963440,523.913818 603.528625,522.168274 
	C602.963135,519.897888 601.113220,519.191528 598.991577,519.008118 
z"/>
<path fill="#000000" opacity="1.000000" stroke="none" 
	d="
M222.888275,517.944336 
	C222.883484,512.797729 222.883484,508.141418 222.883484,502.226074 
	C221.623810,505.658112 223.043137,508.766846 220.629211,510.295135 
	C218.444199,511.678436 215.761795,511.060272 213.289261,510.900665 
	C211.238556,510.768280 209.802643,509.764557 209.798386,507.473206 
	C209.788193,501.978943 209.797089,496.484619 209.819199,490.990387 
	C209.829330,488.471191 211.418777,487.319031 213.649170,487.296906 
	C225.634613,487.177948 237.621323,487.125214 249.607269,487.159790 
	C252.514206,487.168152 253.563095,488.955017 253.448212,491.815308 
	C253.267899,496.305054 253.117706,500.817566 253.370468,505.296997 
	C253.622543,509.764252 251.581268,511.151520 247.450623,511.143585 
	C243.424240,511.135834 240.392075,510.458618 240.836594,505.457214 
	C240.894806,504.802307 240.844604,504.137817 240.433517,503.484467 
	C240.701859,511.653229 238.903671,519.868652 241.193039,527.993042 
	C243.311325,535.510315 241.646210,537.835571 234.052429,537.874634 
	C232.553833,537.882324 231.055313,537.906799 229.556717,537.917908 
	C221.722855,537.976135 220.265549,536.457153 221.940842,528.810547 
	C222.702576,525.333740 222.951080,521.927429 222.888275,517.944336 
z"/>
<path fill="#000000" opacity="1.000000" stroke="none" 
	d="
M189.934845,507.059540 
	C190.719711,501.694366 188.694061,497.073639 188.646164,492.260742 
	C188.615265,489.154694 189.734467,487.651855 193.002731,487.696899 
	C196.319824,487.742615 199.661209,487.627808 202.956161,487.261353 
	C206.868362,486.826263 208.885681,488.374542 208.278290,492.247711 
	C206.933929,500.820465 207.110992,509.436554 207.091599,518.054565 
	C207.083405,521.693848 207.225662,525.194580 208.560242,528.787659 
	C210.713715,534.585510 208.504700,537.311707 202.371231,537.578613 
	C200.048691,537.679626 197.728683,537.946350 195.407379,537.947876 
	C188.699631,537.952454 187.456604,537.036011 188.807129,530.356873 
	C190.348740,522.732666 189.647278,515.150024 189.934845,507.059540 
z"/>
<path fill="#000000" opacity="1.000000" stroke="none" 
	d="
M469.824707,572.001465 
	C469.879395,562.473206 471.091217,561.406982 480.411072,563.055664 
	C482.603424,563.443481 484.574615,563.471375 486.748688,563.066223 
	C491.802277,562.124695 494.807495,564.290833 495.401459,569.461121 
	C495.738739,572.396851 495.399567,575.420776 495.241943,578.398438 
	C495.164337,579.864319 494.366852,580.977966 492.743378,580.947815 
	C491.150787,580.918335 490.334076,579.757141 490.186035,578.357178 
	C489.924561,575.884705 489.931946,573.385193 489.745117,570.903076 
	C489.649994,569.639526 489.034332,568.568909 487.626038,568.586670 
	C486.282684,568.603577 485.496857,569.595642 485.396698,570.855225 
	C485.212616,573.171143 485.234955,575.502686 485.112244,577.824585 
	C485.037140,579.245422 484.551208,580.542786 482.935211,580.719604 
	C480.972015,580.934448 480.385803,579.468262 480.137665,577.913696 
	C479.955261,576.771240 480.074188,575.582642 479.918518,574.433594 
	C479.628998,572.296936 480.800537,568.770081 477.610321,568.756775 
	C473.917297,568.741394 475.561096,572.500916 475.119843,574.690613 
	C474.925842,575.653381 475.110779,576.686340 475.001007,577.673767 
	C474.829498,579.216248 474.448303,580.807434 472.533295,580.873901 
	C470.274597,580.952454 469.912842,579.244324 469.863342,577.466125 
	C469.817078,575.804382 469.836578,574.140747 469.824707,572.001465 
z"/>
<path fill="#000000" opacity="1.000000" stroke="none" 
	d="
M361.755127,567.850586 
	C362.123016,568.933716 362.381622,569.693481 362.814667,570.965698 
	C364.561768,569.098022 364.417755,566.992249 365.140320,565.273132 
	C365.871429,563.533630 367.073273,562.422729 369.019440,563.197266 
	C370.759521,563.889709 370.815338,565.405823 370.251984,566.981689 
	C368.909363,570.737488 367.552704,574.488281 366.210236,578.244141 
	C365.676849,579.736267 364.918701,581.033569 363.101624,580.957947 
	C361.277588,580.882019 360.657684,579.458313 360.189606,577.985046 
	C359.638611,576.250793 359.123688,574.505127 358.204315,571.488647 
	C357.212555,574.486267 356.645050,576.435608 355.917816,578.323364 
	C355.365662,579.756775 354.524261,581.076904 352.702942,580.962830 
	C351.140747,580.864929 350.446747,579.666748 350.011688,578.365112 
	C348.747345,574.582092 347.529816,570.783264 346.307983,566.986145 
	C345.824524,565.483765 345.526581,563.853577 347.379272,563.178833 
	C349.367706,562.454773 350.472778,563.801025 351.147736,565.478027 
	C351.697693,566.844482 352.140350,568.254150 352.712982,569.878296 
	C355.852142,568.326233 354.141602,562.946472 358.363068,563.054138 
	C360.854919,563.117615 360.962646,565.712952 361.755127,567.850586 
z"/>
<path fill="#000000" opacity="1.000000" stroke="none" 
	d="
M436.084869,575.533569 
	C438.496979,575.735840 439.685181,574.104858 441.257996,573.251953 
	C442.505524,572.575439 443.835052,572.277100 444.903046,573.474792 
	C446.000305,574.705383 445.401703,575.917175 444.579773,577.076294 
	C442.456146,580.071167 439.459656,581.391479 435.941986,580.975708 
	C432.297852,580.544983 429.203796,578.846680 427.998474,575.083069 
	C426.655914,570.890747 426.448578,566.584595 427.740845,562.317139 
	C428.799042,558.822693 431.269196,556.661560 434.777466,555.991882 
	C438.241302,555.330750 441.409302,556.178040 443.719971,559.075867 
	C444.650635,560.242981 445.724731,561.631958 444.536987,563.089233 
	C443.356293,564.537903 441.889618,563.814026 440.491058,563.080200 
	C435.053680,560.227051 432.941132,561.441711 433.034241,567.592041 
	C433.076874,570.411560 432.072723,573.791870 436.084869,575.533569 
z"/>
<path fill="#000000" opacity="1.000000" stroke="none" 
	d="
M398.071960,559.443481 
	C398.461517,556.951294 399.449738,555.327271 401.760620,556.082275 
	C405.080994,557.167053 403.427460,560.303711 403.959442,562.523132 
	C412.805725,563.294434 417.316925,570.976746 413.731171,579.059387 
	C413.207275,580.240295 412.425354,581.005798 411.084137,580.900391 
	C409.672272,580.789490 409.047516,579.758057 408.952972,578.529602 
	C408.787018,576.373718 408.805603,574.203979 408.733368,572.040466 
	C408.680847,570.468384 408.427887,568.750610 406.548859,568.649292 
	C404.274078,568.526550 404.082581,570.464417 403.991150,572.168213 
	C403.892975,573.997253 403.982758,575.838379 403.841309,577.662598 
	C403.704407,579.427917 403.138428,581.137207 400.933533,580.943542 
	C398.883545,580.763428 398.310181,579.117493 398.278473,577.316101 
	C398.176056,571.501465 398.114258,565.686096 398.071960,559.443481 
z"/>
<path fill="#000000" opacity="1.000000" stroke="none" 
	d="
M221.432510,569.707031 
	C220.473221,570.379028 219.706451,571.039062 218.992157,570.986511 
	C214.274200,570.639099 211.209320,571.786743 211.893463,577.470581 
	C212.089859,579.102173 211.290222,580.960754 209.130875,580.909485 
	C206.849838,580.855347 206.727570,578.953491 206.724533,577.258545 
	C206.713776,571.278564 206.755539,565.298462 206.801132,559.318542 
	C206.810242,558.124084 207.088608,557.021057 208.216003,556.316589 
	C209.398514,555.577637 221.511963,555.442444 222.509720,556.318604 
	C224.368408,557.950928 224.167297,559.697937 221.914627,560.525208 
	C220.267624,561.130066 218.321304,560.902893 216.512894,561.089966 
	C214.784454,561.268921 212.425568,560.728821 212.335007,563.419556 
	C212.245010,566.093811 214.529938,565.764465 216.310638,565.997986 
	C218.582458,566.295898 221.711136,565.334290 221.432510,569.707031 
z"/>
<path fill="#000000" opacity="1.000000" stroke="none" 
	d="
M281.120117,573.061340 
	C280.537140,576.125549 282.638153,580.717102 278.211090,580.610474 
	C274.321594,580.516724 276.280792,576.129822 275.790985,573.606873 
	C275.603333,572.640320 275.775421,571.604187 275.589142,570.637146 
	C275.349579,569.393677 274.594391,568.473816 273.197083,568.606567 
	C271.784149,568.740845 271.283722,569.859619 271.191833,571.077637 
	C271.042145,573.062195 271.065582,575.059326 270.952423,577.047485 
	C270.845062,578.933655 270.606659,580.994690 268.125519,580.920166 
	C265.841797,580.851562 265.859070,578.815552 265.845612,577.172791 
	C265.797974,571.360962 265.828888,565.548401 265.847107,559.736145 
	C265.852600,557.979065 266.131348,556.191467 268.309967,556.092651 
	C270.142883,556.009583 270.766541,557.540344 271.023529,559.103394 
	C271.292755,560.741028 271.329102,562.217224 273.549774,562.791382 
	C280.543365,564.599304 280.982727,565.316101 281.120117,573.061340 
z"/>
<path fill="#000000" opacity="1.000000" stroke="none" 
	d="
M233.486481,568.135864 
	C231.183014,567.293396 227.348526,569.902588 227.274094,565.892761 
	C227.205780,562.212402 230.950073,562.918518 233.500839,562.845276 
	C237.687454,562.725098 239.923080,565.056763 240.717148,568.962463 
	C240.913467,569.928162 240.882050,570.944885 240.909286,571.939392 
	C241.163788,581.234192 240.269852,582.113342 231.175217,581.052490 
	C227.910797,580.671692 225.319946,579.086731 225.312286,575.444580 
	C225.305038,571.994751 227.219254,569.957031 230.847519,569.631348 
	C231.855728,569.540955 233.635284,570.567200 233.486481,568.135864 
z"/>
<path fill="#000000" opacity="1.000000" stroke="none" 
	d="
M245.880402,568.925293 
	C247.650925,563.350098 251.813583,561.283875 256.693787,563.199463 
	C258.095001,563.749512 259.700134,564.454956 259.449493,566.281555 
	C259.130188,568.608887 257.253082,568.324829 255.554977,568.095032 
	C254.920639,568.009216 254.284592,567.936096 253.631638,567.854980 
	C253.450821,569.068909 254.343307,568.873962 254.834732,569.002502 
	C258.279083,569.903687 261.484497,571.304016 260.838379,575.571655 
	C260.156952,580.072449 256.463684,581.071777 252.589142,581.150146 
	C251.150513,581.179260 249.653061,580.646423 248.263474,580.145264 
	C246.637909,579.558960 245.052521,578.561768 245.672913,576.518433 
	C246.337982,574.328064 248.149200,574.738647 249.812607,575.290588 
	C251.391464,575.814514 252.956238,576.177307 255.439926,575.016968 
	C251.560638,573.397949 246.767731,574.228699 245.880402,568.925293 
z"/>
<path fill="#000000" opacity="1.000000" stroke="none" 
	d="
M328.593445,563.023926 
	C332.582031,565.765503 335.111786,575.439392 333.245087,579.256226 
	C332.665253,580.441895 331.812073,581.130920 330.512878,580.944702 
	C329.223450,580.759827 328.395630,579.826599 328.266144,578.590332 
	C328.041687,576.447083 328.058807,574.279785 327.913727,572.126587 
	C327.800812,570.450378 327.726288,568.476746 325.396393,568.613708 
	C323.468628,568.727051 323.324677,570.469482 323.288116,572.016785 
	C323.241028,574.011353 323.262756,576.008118 323.188507,578.001404 
	C323.126038,579.677307 322.422668,581.009827 320.563141,580.989563 
	C318.711853,580.969482 317.980652,579.592529 317.950623,577.951477 
	C317.883636,574.295471 317.869568,570.635376 317.964233,566.980347 
	C318.035095,564.244568 318.999573,562.619568 322.317719,563.246948 
	C324.191895,563.601379 326.235840,563.057800 328.593445,563.023926 
z"/>
<path fill="#000000" opacity="1.000000" stroke="none" 
	d="
M302.648499,580.677979 
	C297.358093,578.510620 296.638336,574.413330 297.301605,569.873230 
	C297.845673,566.149231 299.786011,563.386963 303.866302,562.859436 
	C307.096741,562.441895 309.758057,563.437195 311.464325,566.356873 
	C313.446777,569.749023 313.761871,573.230713 311.696075,576.698608 
	C309.742218,579.978760 307.014923,581.769409 302.648499,580.677979 
M302.338287,572.402466 
	C302.433441,574.270752 303.113647,575.840271 305.259094,575.435913 
	C307.124603,575.084351 307.747650,573.460510 307.684052,571.630249 
	C307.635406,570.230286 307.300140,568.868530 305.768372,568.537354 
	C303.304199,568.004456 302.647552,569.699707 302.338287,572.402466 
z"/>
<path fill="#000000" opacity="1.000000" stroke="none" 
	d="
M514.960876,577.910400 
	C511.455200,570.522400 513.436096,564.209961 519.387329,563.002441 
	C523.276978,562.213257 526.271362,563.541321 527.976929,567.267883 
	C529.840210,571.338928 529.009460,576.873596 525.931030,579.265015 
	C522.129395,582.218201 518.504333,581.400696 514.960876,577.910400 
M522.109802,568.574402 
	C518.523254,567.955017 518.347717,570.422058 518.439087,572.843384 
	C518.501221,574.490662 519.521240,575.886597 521.316833,575.442505 
	C524.133301,574.745911 523.898682,572.412842 523.470886,570.211731 
	C523.384155,569.765564 522.960938,569.384705 522.109802,568.574402 
z"/>
<path fill="#000000" opacity="1.000000" stroke="none" 
	d="
M365.352844,318.935364 
	C362.984314,320.432526 361.889374,318.943146 361.178833,317.451385 
	C359.332123,313.574554 356.566284,310.589752 353.133484,308.087799 
	C350.244934,305.982483 351.045502,304.307617 353.976837,303.097290 
	C354.900543,302.715912 355.850677,302.398407 356.774078,302.016266 
	C364.239868,298.926636 366.533936,300.285309 367.103790,308.442474 
	C367.345795,311.907440 367.586670,315.471069 365.352844,318.935364 
z"/>
<path fill="#000000" opacity="1.000000" stroke="none" 
	d="
M450.168640,566.457947 
	C454.469666,562.333435 458.182800,561.740723 461.396606,564.363892 
	C464.619324,566.994324 465.587006,574.077209 463.216248,577.682800 
	C461.044067,580.986389 456.641541,582.047058 453.029663,580.136902 
	C449.115173,578.066895 447.969666,573.104126 450.168640,566.457947 
M458.963226,569.577698 
	C457.603424,567.934631 456.036987,567.830933 454.807465,569.504150 
	C453.774109,570.910400 453.856201,572.713074 454.652832,574.270996 
	C455.230682,575.401123 456.359253,575.986938 457.600769,575.348572 
	C459.781250,574.227356 459.932281,572.317017 458.963226,569.577698 
z"/>
<path fill="#000000" opacity="1.000000" stroke="none" 
	d="
M500.966949,564.402283 
	C501.630371,562.451538 502.263336,560.925171 502.777924,559.359924 
	C503.468506,557.259644 504.686218,555.884399 507.051178,555.877197 
	C508.257446,555.873474 509.474518,556.036194 510.099121,557.184021 
	C511.406342,559.586487 508.384796,560.025208 507.847473,561.962158 
	C510.058319,563.599121 510.919220,565.262024 508.182861,567.714478 
	C506.210632,569.482117 507.539673,572.479065 507.169556,574.895142 
	C506.833038,577.092041 508.430573,580.838562 504.622131,580.715576 
	C501.255249,580.606812 502.052948,576.998413 502.000275,574.650452 
	C501.925659,571.323669 501.918854,568.016235 500.966949,564.402283 
z"/>
<path fill="#000000" opacity="1.000000" stroke="none" 
	d="
M393.556641,577.621094 
	C394.039856,580.121826 392.920013,581.104614 390.914246,581.020264 
	C388.973145,580.938721 386.841553,580.039246 386.741608,578.127747 
	C386.439697,572.355103 383.887909,566.647461 386.116333,560.772034 
	C386.664093,559.327820 387.001740,557.871887 388.970917,557.929626 
	C390.655945,557.979004 390.916443,559.199341 391.478027,560.487305 
	C392.696167,563.281067 394.149628,565.576233 392.258850,569.017639 
	C390.978363,571.348267 390.625397,574.865784 393.556641,577.621094 
z"/>
<path fill="#000000" opacity="1.000000" stroke="none" 
	d="
M548.996582,566.128174 
	C548.556152,564.795959 548.678589,563.768005 549.450745,563.058533 
	C551.141174,561.505310 550.257690,556.261475 554.044434,558.408325 
	C556.300049,559.687134 558.875610,563.205444 556.813538,567.185486 
	C555.384338,569.943970 555.475708,573.027832 556.722717,575.814331 
	C557.574951,577.718750 559.020386,579.619629 556.266418,580.696411 
	C553.566101,581.752075 551.740784,579.829163 551.036987,577.479309 
	C550.385132,575.302979 550.318115,572.915894 550.246765,570.613770 
	C550.199280,569.085510 550.187012,567.647705 548.996582,566.128174 
z"/>
<path fill="#000000" opacity="1.000000" stroke="none" 
	d="
M539.217407,572.416016 
	C539.174072,574.674683 539.202820,576.504089 539.081360,578.323547 
	C538.982727,579.801575 538.204468,580.928467 536.617188,580.918274 
	C535.053345,580.908264 534.151306,579.785400 534.114014,578.331116 
	C534.003357,574.020325 533.976135,569.703918 534.073059,565.393250 
	C534.105774,563.937927 535.009583,562.974976 536.668518,562.976196 
	C538.650574,562.977600 540.633057,562.851074 542.614441,562.870850 
	C544.167725,562.886292 545.765991,563.153442 545.976074,565.070923 
	C546.176392,566.898376 544.869934,567.887695 543.291992,568.053650 
	C540.793091,568.316406 539.156067,569.192261 539.217407,572.416016 
z"/>
<path fill="#000000" opacity="1.000000" stroke="none" 
	d="
M380.008301,578.389832 
	C379.430817,580.166626 378.657776,581.219482 377.036346,580.867188 
	C375.459808,580.524597 375.061584,579.162048 375.028503,577.826904 
	C374.930542,573.871704 374.924805,569.913086 374.956818,565.956421 
	C374.970276,564.292175 375.703583,562.979492 377.569885,563.040588 
	C379.397583,563.100342 380.103851,564.432800 380.116699,566.084412 
	C380.147430,570.041199 380.100800,573.998535 380.008301,578.389832 
z"/>
<path fill="#000000" opacity="1.000000" stroke="none" 
	d="
M289.065002,580.870178 
	C285.161133,575.666931 286.867035,570.051880 287.414764,564.661743 
	C287.597626,562.862244 289.722504,562.397400 291.237579,564.097656 
	C293.366638,566.487000 292.032074,578.839478 289.065002,580.870178 
z"/>
<path fill="#000000" opacity="1.000000" stroke="none" 
	d="
M302.376068,317.649078 
	C302.685913,315.829651 302.956390,314.354584 303.325012,312.904541 
	C303.732269,311.302490 304.585541,310.148560 306.478943,310.468842 
	C308.060974,310.736481 309.390564,311.548859 309.774689,313.140961 
	C310.316589,315.387085 309.054871,317.035767 307.306244,318.161102 
	C305.735931,319.171600 303.920898,320.853088 302.376068,317.649078 
z"/>
<path fill="#000000" opacity="1.000000" stroke="none" 
	d="
M377.101440,560.827820 
	C374.714722,559.585632 374.262054,557.975525 376.025421,556.385803 
	C377.097168,555.419739 378.735291,555.604980 379.500793,556.935303 
	C380.712677,559.041138 379.744598,560.370605 377.101440,560.827820 
z"/>
<path fill="#000000" opacity="1.000000" stroke="none" 
	d="
M287.743713,556.599976 
	C290.093536,555.458557 291.626678,555.939819 291.845154,558.316467 
	C291.978943,559.771790 290.903381,560.907166 289.424652,560.737488 
	C287.098480,560.470703 286.554749,558.959656 287.743713,556.599976 
z"/>
</svg>
